<?xml version="1.0" standalone="no"?>
<!DOCTYPE svg PUBLIC "-//W3C//DTD SVG 20010904//EN"
 "http://www.w3.org/TR/2001/REC-SVG-20010904/DTD/svg10.dtd">
<svg version="1.0" xmlns="http://www.w3.org/2000/svg"
 width="277.000000pt" height="277.000000pt" viewBox="0 0 277.000000 277.000000"
 preserveAspectRatio="xMidYMid meet">

<g transform="translate(0.000000,277.000000) scale(0.100000,-0.100000)"
fill="#000000" stroke="none">
<path d="M0 1385 l0 -1385 1385 0 1385 0 0 1385 0 1385 -1385 0 -1385 0 0
-1385z m1459 1075 c46 -23 73 -63 95 -144 10 -32 28 -68 40 -80 27 -24 396
-239 440 -256 21 -8 45 -7 97 4 95 19 160 3 203 -52 24 -30 27 -40 33 -108 3
-37 1 -55 -11 -66 -8 -9 -13 -18 -11 -20 3 -2 -13 -25 -34 -51 -52 -63 -61
-110 -61 -325 0 -230 7 -271 63 -363 58 -94 65 -139 35 -198 -36 -71 -62 -84
-180 -92 -73 -5 -117 -13 -153 -29 -65 -29 -384 -217 -412 -242 -12 -11 -35
-48 -51 -82 -49 -101 -94 -136 -177 -136 -80 0 -128 36 -172 126 -13 28 -38
65 -56 81 -34 32 -311 198 -434 259 l-71 36 -71 -13 c-129 -23 -211 25 -235
138 -13 58 11 113 78 179 l63 62 6 92 c9 118 9 222 0 340 l-6 92 -63 62 c-88
87 -104 161 -53 245 41 67 119 93 210 67 102 -28 105 -27 354 115 127 72 238
138 247 146 10 9 20 32 23 52 9 54 34 117 53 134 55 50 144 61 211 27z"/>
<path d="M1322 2400 c-86 -54 -71 -167 26 -201 42 -14 99 13 126 59 16 29 17
39 8 71 -24 77 -98 110 -160 71z"/>
<path d="M1015 2074 c-110 -64 -226 -130 -258 -148 -79 -43 -74 -60 22 -64 92
-4 120 7 160 63 33 46 56 57 150 75 54 10 91 32 91 54 0 6 15 36 34 68 59 97
47 94 -199 -48z"/>
<path d="M1464 2158 c-22 -18 -42 -23 -85 -23 -67 0 -85 -13 -129 -90 -48 -84
-42 -147 16 -171 26 -11 105 -14 383 -14 192 0 356 3 365 6 24 9 19 30 -11 50
-109 71 -462 264 -484 264 -14 0 -39 -10 -55 -22z"/>
<path d="M454 1911 c-58 -36 -65 -110 -17 -162 92 -100 246 40 156 141 -37 41
-94 50 -139 21z"/>
<path d="M1004 1896 c-41 -41 -47 -97 -14 -139 24 -30 78 -50 113 -42 29 8 72
51 82 83 10 33 -12 89 -45 112 -45 32 -95 27 -136 -14z"/>
<path d="M2134 1912 c-52 -44 -60 -114 -16 -162 34 -38 87 -49 132 -26 18 8
35 14 39 12 4 -3 8 3 9 12 1 9 4 34 8 55 13 75 -34 127 -113 127 -21 -1 -47
-8 -59 -18z"/>
<path d="M733 1784 c-41 -20 -145 -131 -167 -179 -16 -33 -17 -65 -14 -295 1
-142 6 -261 9 -264 11 -11 34 4 50 32 8 15 54 92 101 172 150 256 228 401 228
424 0 30 -48 102 -77 115 -34 16 -93 13 -130 -5z"/>
<path d="M1443 1793 l-161 -3 -53 -61 c-57 -65 -75 -76 -147 -85 -30 -3 -55
-13 -68 -27 -32 -33 -356 -601 -345 -605 16 -5 487 243 520 273 1 2 7 38 12
80 10 89 31 125 92 157 61 31 124 29 178 -6 23 -16 52 -28 64 -28 20 0 421
221 476 263 19 15 22 20 11 31 -14 14 -252 18 -579 11z"/>
<path d="M1994 1658 c-140 -73 -410 -231 -426 -250 -24 -27 -23 -89 1 -115 34
-36 457 -293 484 -293 34 0 117 50 127 76 6 14 10 136 10 272 0 227 -2 250
-20 279 -38 63 -95 73 -176 31z"/>
<path d="M1331 1467 c-80 -41 -85 -154 -9 -193 66 -34 138 -5 159 65 27 89
-69 170 -150 128z"/>
<path d="M1237 1222 c-10 -2 -67 -31 -125 -64 -59 -33 -163 -92 -232 -130 -69
-39 -139 -81 -157 -95 -40 -29 -51 -75 -30 -125 12 -29 38 -48 168 -125 265
-156 315 -183 339 -183 32 0 95 45 121 86 19 31 21 53 25 291 4 232 2 262 -13
292 -19 36 -63 61 -96 53z"/>
<path d="M1463 1220 c-49 -20 -53 -48 -53 -346 l0 -277 43 -41 c84 -80 67 -83
298 50 112 65 223 128 246 142 24 13 45 28 49 33 10 17 -36 135 -64 161 -35
33 -87 67 -250 167 -205 125 -219 131 -269 111z"/>
<path d="M480 979 c-14 -6 -35 -19 -47 -31 -68 -63 -11 -178 88 -178 43 0 99
56 99 99 0 47 -27 91 -65 107 -39 16 -41 16 -75 3z"/>
<path d="M2142 971 c-69 -44 -70 -144 -2 -184 31 -19 105 -23 115 -6 4 6 14 8
23 4 9 -3 13 -3 10 1 -4 3 -1 19 7 35 54 104 -55 211 -153 150z"/>
<path d="M1330 493 c-21 -11 -42 -33 -54 -56 -16 -34 -17 -42 -4 -75 31 -82
125 -104 180 -42 36 39 43 69 25 113 -27 63 -90 89 -147 60z"/>
</g>
</svg>
